<?xml version="1.0" encoding="UTF-8"?>
<svg id="Layer_2" data-name="Layer 2" xmlns="http://www.w3.org/2000/svg" viewBox="0 0 572.33 80">
  <g id="LOGO">
    <g>
      <path d="M0,59.71v-6.5h36.29v6.24c0,3.9,1.82,5.98,4.94,5.98s4.81-1.82,4.81-5.2v-3.12c0-3.9-1.43-5.98-5.85-7.02l-24.71-5.85C3.77,41.5,0,35.51,0,22.24v-1.43C0,6.24,7.16,0,25.76,0h30.18c20.03,0,25.76,4.55,25.76,20.29v3.77h-36.29v-3.64c0-3.77-1.69-5.85-5.07-5.85-2.99,0-4.68,1.82-4.68,4.94v.65c0,3.77,1.43,5.72,5.98,6.76l24.59,5.85c11.71,2.73,15.48,8.72,15.48,22.24v3.51c0,15.35-7.02,21.46-25.76,21.46h-30.18c-20.03,0-25.76-4.55-25.76-20.29Z"/>
      <path d="M87.65,23.41c0-18.73,5.2-23.41,25.76-23.41h31.35c20.55,0,25.76,4.68,25.76,23.41v33.17c0,18.73-5.2,23.41-25.76,23.41h-31.35c-20.55,0-25.76-4.68-25.76-23.41V23.41ZM134.09,22.5c0-4.42-1.69-6.63-4.94-6.63-3.51,0-5.07,2.21-5.07,6.63v34.86c0,4.42,1.69,6.76,5.07,6.76s4.94-2.34,4.94-6.76V22.5Z"/>
      <path d="M212.9,1.3v14.31c2.73-11.19,9.5-15.61,22.11-15.61h2.21c14.96,0,20.42,3.64,21.72,16h.26c2.73-11.32,9.63-16,22.24-16h2.21c17.69,0,22.24,5.07,22.24,23.41v55.28h-36.42V25.89c0-4.55-1.82-6.63-5.07-6.63s-5.07,2.08-5.07,6.63v52.81h-36.42l.13-52.81c0-4.55-1.82-6.63-5.07-6.63s-5.07,2.08-5.07,6.63v52.81h-36.42V1.3h36.42Z"/>
      <path d="M394.71,53.33v25.36h-34.99c-.91-4.16-1.3-7.15-1.3-12.75h-.65c-2.73,10.02-9.24,14.05-20.03,14.05h-4.81c-14.96,0-21.59-7.54-21.59-24.33,0-17.69,6.89-24.2,23.54-24.2h16.52c5.33,0,7.54-2.21,7.54-7.41v-3.51c0-3.9-1.43-5.59-4.68-5.59s-4.81,1.82-4.81,6.37v4.68h-35.64v-5.85c0-14.7,6.24-20.16,24.32-20.16h27.19c22.89,0,29.4,5.07,29.4,25.63v27.71ZM358.28,44.75c-.78,1.17-3.77,2.34-6.37,2.99-4.29,1.17-5.72,3.25-5.72,7.93s1.56,7.28,4.81,7.28h.52c3.9,0,6.76-3.64,6.76-9.24v-8.98Z"/>
      <path d="M572.33,53.33v25.36h-34.99c-.91-4.16-1.3-7.15-1.3-12.75h-.65c-2.73,10.02-9.24,14.05-20.03,14.05h-4.81c-14.96,0-21.59-7.54-21.59-24.33,0-17.69,6.89-24.2,23.54-24.2h16.52c5.33,0,7.54-2.21,7.54-7.41v-3.51c0-3.9-1.43-5.59-4.68-5.59s-4.81,1.82-4.81,6.37v4.68h-35.64v-5.85c0-14.7,6.24-20.16,24.32-20.16h27.19c22.89,0,29.4,5.07,29.4,25.63v27.71ZM535.91,44.75c-.78,1.17-3.77,2.34-6.37,2.99-4.29,1.17-5.72,3.25-5.72,7.93s1.56,7.28,4.81,7.28h.52c3.9,0,6.76-3.64,6.76-9.24v-8.98Z"/>
      <path d="M437.09,1.3v14.31c2.73-11.19,9.49-15.61,22.11-15.61h2.21c17.56,0,22.11,5.07,22.11,23.41v55.28h-36.42V25.89c.13-4.55-1.69-6.63-4.94-6.63s-5.07,2.08-5.07,6.63v52.81h-36.42V1.3h36.42Z"/>
    </g>
  </g>
</svg>