<?xml version="1.0" encoding="UTF-8"?>
<svg id="Layer_3" data-name="Layer 3" xmlns="http://www.w3.org/2000/svg" viewBox="0 0 200 200">
  <defs>
    <style>
      .cls-1 {
        fill: #fff;
      }
    </style>
  </defs>
  <g id="LOGO">
    <path class="cls-1" d="M138.95,37.89c3.54-2.65,6.15-6.35,7.46-10.56,1.32-4.22,1.27-8.74-.12-12.93-1.4-4.19-4.08-7.84-7.66-10.42C135.04,1.39,130.73,0,126.32,0H21.05c-5.25,0-10.31,1.96-14.19,5.5C2.99,9.03.57,13.89.09,19.12c-.48,5.23,1,10.44,4.17,14.63,3.16,4.19,7.78,7.04,12.94,8l60.34,11.24c4.83.9,9.2,3.46,12.34,7.24,3.14,3.78,4.86,8.54,4.86,13.45s-1.72,9.67-4.86,13.45c-3.14,3.78-7.51,6.34-12.34,7.24l-60.34,11.24c-3.77.7-7.28,2.42-10.14,4.97-2.86,2.55-4.98,5.83-6.11,9.49-1.14,3.66-1.25,7.57-.33,11.29.92,3.72,2.84,7.12,5.55,9.83l52.63,52.63c2.71,2.71,6.11,4.63,9.83,5.55,3.72.92,7.62.81,11.29-.33,3.66-1.14,6.94-3.25,9.49-6.11,2.55-2.86,4.27-6.37,4.97-10.14l11.24-60.34c.9-4.83,3.46-9.2,7.24-12.34,3.78-3.14,8.54-4.86,13.45-4.86s9.68,1.72,13.46,4.86c3.78,3.14,6.34,7.51,7.24,12.34l11.24,60.34c.96,5.16,3.81,9.77,8,12.94,4.19,3.16,9.4,4.65,14.63,4.17,5.23-.48,10.08-2.9,13.62-6.78,3.54-3.88,5.5-8.94,5.5-14.19V21.05c0-5.25-1.96-10.31-5.5-14.19-3.54-3.88-8.39-6.3-13.62-6.78-5.23-.48-10.44,1-14.63,4.17-4.19,3.16-7.04,7.78-8,12.94l-11.24,60.34c-.63,3.37-2.07,6.53-4.19,9.21-2.13,2.68-4.88,4.81-8.01,6.19-3.13,1.38-6.56,1.98-9.97,1.74-3.42-.24-6.72-1.31-9.63-3.12-2.91-1.81-5.33-4.3-7.06-7.25-1.73-2.96-2.71-6.29-2.86-9.71-.15-3.42.54-6.83,2-9.92s3.66-5.79,6.4-7.84l25.26-18.95Z"/>
  </g>
</svg>